

<svg version="1.1"  xmlns="http://www.w3.org/2000/svg" xmlns:xlink="http://www.w3.org/1999/xlink" x="0px" y="0px"
	 viewBox="0 0 768 318" style="enable-background:new 0 0 768 318;" xml:space="preserve">
<style type="text/css">
	.st0{fill:#6497B9;}
	.st1{fill:none;stroke:#003356;stroke-width:0.75;stroke-miterlimit:10;stroke-opacity:0.6;}
	.st2{fill:#D9D9D9;filter:url(#Adobe_OpacityMaskFilter);}
	.st3{mask:url(#mask1_225_4360_00000019677103869850654550000013308216719146730639_);}
	.st4{fill:none;}
	.st5{fill:none;stroke:#003356;stroke-width:0.75;stroke-miterlimit:10;}
</style>
<polygon class="st0" points="-105.7,266.3 398.4,266.3 81.9,-49.3 809,-49.3 809,377.8 -84.6,377.8 "/>
<path class="st1" d="M190.8-19l285.6,285.3"/>
<path class="st1" d="M-98.4,266.1h922.3"/>
<path class="st1" d="M493,360.9L130.6-1.5"/>
<path class="st1" d="M1194.7,321.1H569.2c-24.3,0-47.6-9.6-64.7-26.8l-28-28l-28,28c-17.2,17.2-40.5,26.8-64.7,26.8H181.9"/>
<path class="st1" d="M998.6-178.2L188.9,631.5"/>
<path class="st1" d="M449,361.2v-550.8"/>
<path class="st1" d="M504.1-189.6v551.2"/>
<path class="st1" d="M476.5,266.2l503.3-503.3"/>
<defs>
	<filter id="Adobe_OpacityMaskFilter" filterUnits="userSpaceOnUse" x="121" y="42.4" width="333" height="274.3">
		<feColorMatrix  type="matrix" values="1 0 0 0 0  0 1 0 0 0  0 0 1 0 0  0 0 0 1 0"/>
	</filter>
</defs>
<mask maskUnits="userSpaceOnUse" x="121" y="42.4" width="333" height="274.3" id="mask1_225_4360_00000019677103869850654550000013308216719146730639_">
	<path class="st2" d="M-9.1,111.6L56.6-10h65.7l275.7,276.1h-407V111.6z"/>
</mask>
<g class="st3">
	<rect x="121" y="42.4" class="st4" width="333" height="274.3"/>
</g>
<path class="st5" d="M230.2,394"/>
</svg>
