

<svg version="1.1"  xmlns="http://www.w3.org/2000/svg" xmlns:xlink="http://www.w3.org/1999/xlink" x="0px" y="0px"
	 viewBox="0 0 768 690.8" style="enable-background:new 0 0 768 690.8;" xml:space="preserve">
<style type="text/css">
	.st0{fill:none;}
	.st1{fill:#003356;fill-opacity:0.9;}
	.st2{fill:#D64159;}
	.st3{fill:none;stroke:#F5F5F5;stroke-width:0.75;stroke-miterlimit:10;stroke-opacity:0.3;}
</style>
<rect x="-49" y="140" class="st0" width="777" height="400"/>
<path class="st1" d="M2.5,529.9L556.4-24L-255-16l-12,545.9l-73,10.1l22,17.6c-17.5,17.5,2.7,40.3-22,40.3l-8,22.8l59.7,69.3H784.1
	V529.9H2.5z"/>
<path class="st2" d="M84,529.7h-317l28.9,288.1L84,529.7z"/>
<path class="st3" d="M-288.3,239.3L2.6,529.6"/>
<path class="st3" d="M-297.6,529.6H88.8"/>
<path class="st3" d="M140.5,747.2L-304,302.7"/>
<path class="st3" d="M784.1,585.5H96.9c-24.7,0-48.5-9.8-65.9-27.3L2.4,529.6l-28.5,28.5c-17.5,17.5-41.2,27.3-65.9,27.3h-205.6"/>
<path class="st3" d="M561.8,51.3L-161.9,775"/>
<path class="st3" d="M81.2,529.6h652.9"/>
<path class="st3" d="M31-16v758"/>
<path class="st3" d="M2.4,529.9L515.3,17"/>
</svg>
