<svg version="1.1" xmlns="http://www.w3.org/2000/svg" xmlns:xlink="http://www.w3.org/1999/xlink" x="0px" y="0px"
	 viewBox="0 0 2600 1400" style="enable-background:new 0 0 2600 1400;" xml:space="preserve">
<style type="text/css">
	.st0{fill:none;}
	.st1{fill:#003356;fill-opacity:0.8;}
	.st2{fill:none;stroke:#F5F5F5;stroke-width:0.75;stroke-miterlimit:10;stroke-opacity:0.3;}
</style>
<rect x="144" y="434.5" class="st0" width="1748" height="965"/>
<path class="st1" d="M634.7,1234L1905.3,0L-335-0.5V1234H634.7l-49.1,49c-30.1,30.1-70.8,47-113.3,47H-335v69.6h2647V1234H634.7z"/>
<path class="st2" d="M-401.5,224.4L635,1233.5"/>
<path class="st2" d="M119,1233.5h664"/>
<path class="st2" d="M664,1399.5L-463.6,333.1"/>
<path class="st2" d="M2312,1329.5H797c-42.5,0-83.3-16.9-113.3-47l-49-49l-49,49c-30,30.1-70.8,47-113.3,47H119"/>
<path class="st2" d="M2077.5-48l-1470,1448"/>
<path class="st2" d="M587,1400V-24.5"/>
<path class="st2" d="M770,1233.5h1122"/>
<path class="st2" d="M683-24.5v1425"/>
<path class="st2" d="M634.5,1234L2011.9-104.5"/>
</svg>
