

<svg version="1.1"  xmlns="http://www.w3.org/2000/svg" xmlns:xlink="http://www.w3.org/1999/xlink" x="0px" y="0px"
	 viewBox="0 0 768 1205.2" style="enable-background:new 0 0 768 1205.2;" xml:space="preserve">
<style type="text/css">
	.st0{fill:#003356;}
	.st1{fill:none;}
	.st2{fill-rule:evenodd;clip-rule:evenodd;fill:#5B89AA;}
</style>
<polygon class="st0" points="144,481.1 625.7,0 -299.9,0 -299.9,1221 847.8,1221 847.8,481.1 "/>
<rect x="166" y="58" class="st1" width="775" height="577"/>
<path class="st2" d="M1506.6,481h-2609.9v-0.5h2609.9V481z"/>
<path class="st2" d="M-508.5-3L743.1,1248.6L537.5,1044L-509-2.5L-508.5-3z"/>
<path class="st2" d="M144.4,480.8l60.9,60.9c37.2,37.2,87.7,58.1,140.4,58.1h1357.7v0.5H345.7c-52.8,0-103.4-20.9-140.7-58.2
	l-60.6-60.5l-60.6,60.5c-37.3,37.3-87.9,58.2-140.7,58.2H-495v-0.5h438.1c52.6,0,103.1-20.9,140.4-58.1L144.4,480.8z"/>
<path class="st2" d="M-480,1273.7L1277.5-483.8l0.3,0.4L-479.6,1274L-480,1273.7z"/>
<path class="st2" d="M204,1222V-508h1v1550L204,1222z"/>
<path class="st2" d="M1237.1-611.3L144.7,481.1l-0.4-0.4L1236.7-611.6L1237.1-611.3z"/>
</svg>
